<svg xmlns="http://www.w3.org/2000/svg" width="1878" height="1064.355" viewBox="0 0 1878 1064.355"><g transform="translate(-34 -38.202)"><rect width="20" height="43" transform="translate(34 993.056)" fill="#dadada"/><line y1="88.056" transform="translate(44.5 1014.5)" fill="none" stroke="#dadada" stroke-width="1"/><rect width="20" height="42" transform="translate(92 960.056)" fill="#dadada"/><line y1="121.056" transform="translate(102.5 981.5)" fill="none" stroke="#dadada" stroke-width="1"/><rect width="20" height="20" transform="translate(150 940.056)" fill="#dadada"/><line y1="152.056" transform="translate(160.5 950.5)" fill="none" stroke="#dadada" stroke-width="1"/><rect width="20" height="38" transform="translate(208 960.056)" fill="#dadada"/><line y1="123.056" transform="translate(218.5 979.5)" fill="none" stroke="#dadada" stroke-width="1"/><rect width="20" height="28" transform="translate(266 998.056)" fill="#dadada"/><line y1="90.056" transform="translate(276.5 1012.5)" fill="none" stroke="#dadada" stroke-width="1"/><rect width="20" height="30" transform="translate(324 973.056)" fill="#dadada"/><line y1="114.056" transform="translate(334.5 988.5)" fill="none" stroke="#dadada" stroke-width="1"/><rect width="20" height="37" transform="translate(382 936.056)" fill="#dadada"/><line y1="148.056" transform="translate(392.5 954.5)" fill="none" stroke="#dadada" stroke-width="1"/><rect width="20" height="35.584" transform="translate(440 888.432)" fill="#dadada"/><line y1="196.056" transform="translate(450.5 906.5)" fill="none" stroke="#dadada" stroke-width="1"/><rect width="20" height="22.584" transform="translate(498 927.472)" fill="#dadada"/><line y1="159" transform="translate(508.5 943.556)" fill="none" stroke="#dadada" stroke-width="1"/><rect width="20" height="44.584" transform="translate(556 937.472)" fill="#dadada"/><line y1="120" transform="translate(566.5 982.556)" fill="none" stroke="#dadada" stroke-width="1"/><rect width="20" height="24.584" transform="translate(614 886.544)" fill="#dadada"/><line y1="204.056" transform="translate(624.5 898.5)" fill="none" stroke="#dadada" stroke-width="1"/><rect width="20" height="46.584" transform="translate(672 931.472)" fill="#dadada"/><line y1="148.056" transform="translate(682.5 954.5)" fill="none" stroke="#dadada" stroke-width="1"/><rect width="20" height="53.584" transform="translate(730 950.472)" fill="#dadada"/><line y1="117.056" transform="translate(740.5 977.5)" fill="none" stroke="#dadada" stroke-width="1"/><rect width="20" height="91.584" transform="translate(788 919.472)" fill="#dadada"/><line y1="137.056" transform="translate(798.5 965.5)" fill="none" stroke="#dadada" stroke-width="1"/><rect width="20" height="87" transform="translate(846 884.056)" fill="#dadada"/><line y1="175.056" transform="translate(856.5 927.5)" fill="none" stroke="#dadada" stroke-width="1"/><rect width="20" height="45" transform="translate(904 855.625)" fill="#dadada"/><line y1="224.056" transform="translate(914.5 878.5)" fill="none" stroke="#dadada" stroke-width="1"/><rect width="20" height="64" transform="translate(962 815.105)" fill="#dadada"/><line y1="255.056" transform="translate(972.5 847.5)" fill="none" stroke="#dadada" stroke-width="1"/><rect width="20" height="25" transform="translate(1020 783.899)" fill="#dadada"/><line y1="306.056" transform="translate(1030.5 796.5)" fill="none" stroke="#dadada" stroke-width="1"/><rect width="20" height="70" transform="translate(1078 780.766)" fill="#dadada"/><line y1="287.056" transform="translate(1088.5 815.5)" fill="none" stroke="#dadada" stroke-width="1"/><rect width="20" height="64" transform="translate(1136 744.477)" fill="#dadada"/><line y1="326.056" transform="translate(1146.5 776.5)" fill="none" stroke="#dadada" stroke-width="1"/><rect width="20" height="32" transform="translate(1195 690.151)" fill="#dadada"/><line y1="396.056" x2="1" transform="translate(1204.5 706.5)" fill="none" stroke="#dadada" stroke-width="1"/><rect width="20" height="65" transform="translate(1251 638.667)" fill="#dadada"/><line x1="1" y1="431.056" transform="translate(1261.5 671.5)" fill="none" stroke="#dadada" stroke-width="1"/><rect width="20" height="90" transform="translate(1310 721.984)" fill="#dadada"/><line y1="336.056" transform="translate(1320.5 766.5)" fill="none" stroke="#dadada" stroke-width="1"/><rect width="20" height="32" transform="translate(1368 858.279)" fill="#dadada"/><line y1="228.056" transform="translate(1378.5 874.5)" fill="none" stroke="#dadada" stroke-width="1"/><rect width="20" height="29" transform="translate(1426 888.002)" fill="#dadada"/><line y1="200.056" transform="translate(1436.5 902.5)" fill="none" stroke="#dadada" stroke-width="1"/><rect width="20" height="25" transform="translate(1484 857.123)" fill="#dadada"/><line y1="233.056" transform="translate(1494.5 869.5)" fill="none" stroke="#dadada" stroke-width="1"/><rect width="20" height="70" transform="translate(1543 762.477)" fill="#dadada"/><line y1="305.056" x2="1" transform="translate(1552.5 797.5)" fill="none" stroke="#dadada" stroke-width="1"/><rect width="20" height="150" transform="translate(1601 603.846)" fill="#dadada"/><line y1="424.056" x2="1" transform="translate(1610.5 678.5)" fill="none" stroke="#dadada" stroke-width="1"/><rect width="20" height="100" transform="translate(1659 474.033)" fill="#dadada"/><line y1="578.056" x2="1" transform="translate(1668.5 524.5)" fill="none" stroke="#dadada" stroke-width="1"/><rect width="20" height="59" transform="translate(1717 398.256)" fill="#dadada"/><line y1="675.056" x2="1" transform="translate(1726.5 427.5)" fill="none" stroke="#dadada" stroke-width="1"/><rect width="20" height="141" transform="translate(1775 230.438)" fill="#dadada"/><line y1="802.056" x2="1" transform="translate(1784.5 300.5)" fill="none" stroke="#dadada" stroke-width="1"/><rect width="20" height="56" transform="translate(1833 128.202)" fill="#dadada"/><line y1="941.193" transform="translate(1842.5 161.362)" fill="none" stroke="#dadada" stroke-width="1"/><rect width="20" height="90" transform="translate(1892 38.202)" fill="#dadada"/><line y1="1007.854" x2="1" transform="translate(1901.5 83.702)" fill="none" stroke="#dadada" stroke-width="1"/></g></svg>